<?xml version="1.0" encoding="utf-8"?>
<!-- Generator: Adobe Illustrator 16.0.0, SVG Export Plug-In . SVG Version: 6.00 Build 0)  -->
<!DOCTYPE svg PUBLIC "-//W3C//DTD SVG 1.1//EN" "http://www.w3.org/Graphics/SVG/1.1/DTD/svg11.dtd">
<svg version="1.1" id="Camada_1" xmlns="http://www.w3.org/2000/svg" xmlns:xlink="http://www.w3.org/1999/xlink" x="0px" y="0px"
	 width="675.324px" height="204.807px" viewBox="0 0 675.324 204.807" enable-background="new 0 0 675.324 204.807"
	 xml:space="preserve">
<g>
	<path fill="#FF6600" d="M454.855,46.012L454.855,46.012c4.152-1.263,7.451-2.074,9.891-2.438c2.438-0.359,5.19-0.541,8.268-0.541
		c5.236,0,10.024,0.948,14.36,2.846s8.082,4.519,11.245,7.857c3.159,3.346,5.645,7.362,7.451,12.059
		c1.804,4.699,2.71,9.757,2.71,15.176c0,10.838-3.299,19.604-9.892,26.283c-6.596,6.686-15.311,10.027-26.147,10.027
		c-3.252,0-6.188-0.271-8.808-0.812c-2.621-0.543-5.647-1.533-9.078-2.982V46.012L454.855,46.012z M419.63,0.001v4.011v200.795
		h35.227v-57.99c3.611,0.902,7.271,1.58,10.976,2.033c3.699,0.445,7.451,0.678,11.246,0.678c9.571,0,18.516-1.809,26.825-5.42
		c8.308-3.611,15.535-8.535,21.68-14.77c6.141-6.23,10.975-13.592,14.497-22.086c3.521-8.486,5.283-17.611,5.283-27.365
		c0-9.935-1.719-19.105-5.148-27.507c-3.434-8.397-8.129-15.67-14.09-21.812c-5.963-6.142-13.102-10.929-21.408-14.363
		c-8.311-3.428-17.342-5.146-27.098-5.146c-5.783,0-11.699,0.451-17.748,1.354c-6.057,0.906-11.429,2.168-16.125,3.793L419.63,0.001
		z"/>
	<path fill="#FF6600" d="M388.955,159.551L388.955,159.551V10.68h-35.771v101.448c-3.252,1.99-6.772,3.301-10.567,3.93
		c-3.793,0.637-8.582,0.949-14.36,0.949c-2.893,0-5.825-0.496-8.808-1.492c-2.979-0.986-5.646-2.438-7.994-4.334
		c-2.351-1.895-4.246-4.336-5.689-7.314c-1.446-2.98-2.167-6.457-2.167-10.433V10.68H268.1v83.023
		c0,10.296,1.939,18.968,5.827,26.013c3.882,7.045,8.76,12.783,14.633,17.209c5.868,4.428,12.236,7.586,19.104,9.482
		c6.863,1.896,13.367,2.846,19.51,2.846c6.322,0,12.871-0.59,19.646-1.762c6.773-1.178,12.6-2.666,17.477-4.473L388.955,159.551z"/>
	<path fill="#FF6600" d="M250,24.604L250,24.604c-9.396-4.151-18.834-7.541-28.316-10.159c-9.484-2.617-17.391-3.931-23.711-3.931
		c-10.119,0-19.512,1.72-28.183,5.147c-8.671,3.435-16.123,8.267-22.354,14.498c-6.232,6.231-11.11,13.685-14.634,22.354
		c-3.522,8.671-5.283,18.248-5.283,28.724c0,9.938,1.762,19.061,5.283,27.367c3.522,8.312,8.4,15.445,14.634,21.408
		c6.231,5.961,13.727,10.613,22.49,13.953c8.761,3.342,18.381,5.014,28.858,5.014c3.252,0,6.999-0.27,11.246-0.811
		c4.242-0.541,8.761-1.402,13.55-2.574c4.783-1.178,9.661-2.574,14.632-4.199c4.968-1.627,9.798-3.521,14.497-5.689l-14.09-28.453
		c-9.938,3.795-17.75,6.414-23.439,7.859c-5.69,1.445-10.887,2.168-15.581,2.168c-11.021,0-19.738-3.252-26.148-9.756
		c-6.416-6.505-9.621-15.445-9.621-26.826c0-11.383,3.159-20.549,9.484-27.504c6.321-6.953,14.633-10.435,24.931-10.435
		c2.167,0,4.378,0.137,6.638,0.405c2.259,0.271,4.879,0.813,7.859,1.627c2.98,0.812,6.367,1.854,10.162,3.115
		c3.793,1.267,8.307,2.979,13.548,5.147L250,24.604z"/>
	<path fill="#FF6600" d="M92.401,53.057c-6.146-4.513-12.152-7.494-18.021-8.94c-5.872-1.445-11.697-2.168-17.478-2.168
		c-4.701,0-8.99,0.996-12.872,2.979c-3.888,1.989-5.826,4.431-5.826,7.315c0,2.711,1.804,4.789,5.42,6.231
		c3.611,1.449,8.171,2.756,13.686,3.931c5.508,1.178,11.47,2.483,17.885,3.93c6.409,1.447,12.371,3.656,17.884,6.64
		c5.509,2.979,10.068,6.955,13.685,11.921c3.611,4.973,5.421,11.52,5.421,19.646c0,7.408-1.626,13.865-4.879,19.375
		c-3.252,5.514-7.545,10.162-12.87,13.955c-5.331,3.793-11.476,6.641-18.428,8.535c-6.957,1.898-14.227,2.846-21.812,2.846
		c-18.067,0-36.134-5.42-54.196-16.258l13.278-27.641c8.672,4.158,16.259,7.271,22.763,9.348c6.503,2.08,13.095,3.119,19.781,3.119
		c5.235,0,9.933-1.174,14.09-3.525c4.153-2.346,6.233-5.688,6.233-10.023c0-2.345-1.81-4.199-5.419-5.554
		c-3.617-1.355-8.178-2.617-13.687-3.793c-5.513-1.176-11.475-2.527-17.885-4.064c-6.414-1.533-12.376-3.795-17.884-6.775
		c-5.514-2.979-10.073-6.909-13.686-11.786c-3.616-4.88-5.42-11.289-5.42-19.24c0-5.599,1.491-10.974,4.471-16.123
		c2.981-5.147,7.046-9.661,12.195-13.549c5.148-3.884,11.109-6.953,17.884-9.213c6.774-2.257,13.862-3.388,21.271-3.388
		c8.13,0,16.618,1.131,25.472,3.388c8.851,2.26,16.979,6.008,24.389,11.245L92.401,53.057z"/>
	<path fill="#007DBC" d="M655.721,2.325c26.108,51.344,25.999,102.704,0.486,154.228l-28.062-14.35
		c17.202-42.009,17.231-83.702-0.354-125.6L655.721,2.325z"/>
	<path fill="#007DBC" d="M570.88,45.701c6.754,22.514,6.875,44.897,0.36,67.412l28.944,14.797
		c13.349-32.248,12.98-64.692-0.518-96.929L570.88,45.701z"/>
</g>
</svg>
